<svg xmlns="http://www.w3.org/2000/svg" style="overflow: visible;" data-svgdocument="" x="0" y="0" overflow="hidden"
     data-bbox="145.560498289937 184.06986833244196 222.4503073947226 156.10551796073383"
     viewBox="145.56 184.66 222.45 155.51">
    <defs transform="matrix(0.7966864109039307, 0, 0, 0.7966864109039307, -30.7750244140625, 161.43264770507812)"
          data-uid="o_engl54ijh_4"/>
    <path id="_aNvBQAGdBTcRelv892A_s"
          d="m 12,965.36303 c -2.7526942,0 -5,2.24729 -5,4.99994 l 0,49.99943 c 0,2.7527 2.2473058,4.9999 5,4.9999 l 30,0 0,11.9999 -5,0 c -0.52302,0 -0.998894,0.4764 -0.998894,1 0,0.5236 0.475874,1 0.998894,1 8.65625,0 17.3125,0 25.96875,0 0.578108,0.024 1.104502,-0.5504 1.03125,-1.125 -0.06117,-0.4918 -0.536655,-0.8952 -1.03125,-0.875 l -4.96875,0 0,-11.9999 30,0 c 2.752694,0 5,-2.2472 5,-4.9999 l 0,-49.99943 c 0,-2.75265 -2.247306,-4.99994 -5,-4.99994 z m 0,1.99997 76,0 c 1.679306,0 3,1.32074 3,2.99997 l 0,49.99943 c 0,1.6793 -1.320694,3 -3,3 l -76,0 c -1.679306,0 -3,-1.3207 -3,-3 l 0,-49.99943 c 0,-1.67923 1.320694,-2.99997 3,-2.99997 z m 43.875,11.96862 c -0.363198,0.0475 -0.689655,0.31117 -0.8125,0.65624 l -12,29.99964 c -0.188184,0.4909 0.08722,1.1087 0.578096,1.2969 0.490874,0.1882 1.10872,-0.087 1.296904,-0.5781 l 12,-29.9997 c 0.26994,-0.64786 -0.367491,-1.47276 -1.0625,-1.37498 z m -19.90625,4.99994 c -0.165992,0.012 -0.328759,0.0663 -0.46875,0.15625 l -18,9.99988 c -0.621399,0.34395 -0.621399,1.40603 0,1.74998 l 18,9.99993 c 0.458154,0.2618 1.11321,0.083 1.37501,-0.375 0.261799,-0.4582 0.08314,-1.1132 -0.37501,-1.375 L 20.0625,995.36268 36.5,986.23779 c 0.434082,-0.19274 0.685028,-0.725 0.557524,-1.18251 -0.127505,-0.45751 -0.617571,-0.78327 -1.088774,-0.72372 z m 27.9375,0 c -0.448043,0.007 -0.868091,0.35324 -0.961492,0.7915 -0.0934,0.43826 0.149169,0.92525 0.555242,1.11473 l 16.4375,9.12489 -16.4375,9.12492 c -0.458154,0.2618 -0.636809,0.9168 -0.37501,1.375 0.2618,0.4581 0.916856,0.6368 1.37501,0.375 l 18,-9.99993 c 0.621399,-0.34395 0.621399,-1.40603 0,-1.74998 l -18,-9.99988 c -0.175203,-0.11213 -0.386047,-0.16761 -0.59375,-0.15625 z M 44,1025.3623 l 12,0 0,11.9999 -12,0 z"
          fill="#FFFFFF" fill-opacity="1" stroke="none" marker="none" visibility="visible" display="inline"
          overflow="visible"
          transform="matrix(1.1824133396148682, 0, 0, 1.1824133396148682, 199.2476043701172, -956.7970581054688)"
          direction="ltr" baseline-shift="baseline" color="rgb(0, 0, 0)" stroke-width="1" data-uid="o_engl54ijh_5"
          style="text-indent: 0px; text-transform: none;"/>
    <path text="def-squad" text-anchor="middle" font-size="100" letter-spacing="0" side="left" offset="0.5" dx="0"
          dy="0" space="preserve" href="" font-family="Flamenco" font-scale="contain"
          transform="matrix(0.5611763000488281, 0, 0, 0.5611763000488281, 255.85971069335938, 327.324462890625)" x="0"
          y="0" fill="#FFFFFF" data-fl-textpath="" id="_fOU6kpe3PPhIlda_Y4qMd" data-uid="o_engl54ijh_6"
          d="M-178.75-33.8L-178.75-33.8Q-184.45-33.8 -187.85-29.7Q-191.25-25.6 -191.25-18.6Q-191.25-11.6 -187.9-7.6Q-184.55-3.6 -178.75-3.6L-178.75-3.6Q-170.35-3.6 -165.35-13.1L-165.35-13.1L-165.35-27.8Q-167.95-30.3 -171.6-32.05Q-175.25-33.8 -178.75-33.8ZM-165.35-33.1L-165.35-70.3L-171.95-70.3Q-172.95-70.3 -173.6-70.95Q-174.25-71.6 -174.25-72.6Q-174.25-73.6 -173.6-74.3Q-172.95-75 -171.95-75L-171.95-75L-162.65-75Q-161.55-75 -160.75-74.3Q-159.95-73.6 -159.95-72.6L-159.95-72.6L-159.95-6.6Q-159.95-4.7 -157.95-4.7L-157.95-4.7L-153.35-4.7Q-152.35-4.7 -151.7-4.05Q-151.05-3.4 -151.05-2.4Q-151.05-1.4 -151.7-0.7Q-152.35 0 -153.35 0L-153.35 0L-158.65 0Q-165.15 0 -164.95-7.1L-164.95-7.1Q-167.15-3.7 -170.7-1.35Q-174.25 1 -178.75 1L-178.75 1Q-187.65 1 -192.1-4.7Q-196.55-10.4 -196.55-18.8Q-196.55-27.2 -191.9-32.8Q-187.25-38.4 -179.15-38.4Q-171.05-38.4 -165.35-33.1L-165.35-33.1ZM-115.55000000000001-22Q-115.85000000000001-27.4 -118.7-30.6Q-121.55000000000001-33.8 -126.9-33.8Q-132.25-33.8 -135.85-30.55Q-139.45000000000002-27.3 -140.35-22L-140.35-22L-115.55000000000001-22ZM-115.35000000000001-9.6L-115.35000000000001-9.6Q-114.65-10.8 -113.75-10.8Q-112.85000000000001-10.8 -111.95-10.35Q-111.05000000000001-9.9 -110.7-8.95Q-110.35000000000001-8 -110.85000000000001-7.2L-110.85000000000001-7.2Q-115.95 1 -127.05000000000001 1L-127.05000000000001 1Q-135.85 1 -140.9-4.65Q-145.95000000000002-10.3 -145.95000000000002-18.9Q-145.95000000000002-27.5 -140.75-32.95Q-135.55-38.4 -127.05000000000001-38.4Q-118.55000000000001-38.4 -114.4-33.3Q-110.25-28.2 -110.25-19.7L-110.25-19.7Q-110.25-17.4 -112.85000000000001-17.4L-112.85000000000001-17.4L-140.55-17.3Q-140.15-11.1 -136.5-7.35Q-132.85-3.6 -127.05000000000001-3.6L-127.05000000000001-3.6Q-119.25-3.6 -115.35000000000001-9.6ZM-103.65 22.6L-103.65 22.6Q-104.75000000000001 22.9 -105.55000000000001 22.9Q-106.35000000000001 22.9-107.00000000000001 22.3Q-107.65 21.7-107.65 20.7L-107.65 20.7Q-107.65 18.9 -105.35000000000001 18.3L-105.35000000000001 18.3Q-100.15 16.7 -98.15 12.35Q-96.15 8 -96.15 0.6L-96.15 0.6L-96.15-32.7L-102.25000000000001-32.7Q-103.25000000000001-32.7 -103.9-33.35Q-104.55000000000001-34 -104.55000000000001-35Q-104.55000000000001-36 -103.9-36.7Q-103.25000000000001-37.4 -102.25000000000001-37.4L-102.25000000000001-37.4L-96.15-37.4L-96.15-60Q-96.15-68.7 -92.50000000000001-72.35Q-88.85000000000001-76 -81.25000000000001-76Q-73.65-76 -68.25000000000001-72.7L-68.25000000000001-72.7Q-67.05000000000001-72 -67.05000000000001-70.9L-67.05000000000001-70.9L-67.05000000000001-62.3Q-67.05000000000001-61.3 -67.85000000000001-60.65Q-68.65-60 -69.75000000000001-60Q-70.85000000000001-60 -71.65-60.65Q-72.45000000000002-61.3 -72.45000000000002-62.3L-72.45000000000002-62.3L-72.45000000000002-69.8Q-75.95000000000002-71.4 -81.15-71.4Q-86.35000000000001-71.4 -88.60000000000001-68.75Q-90.85000000000001-66.1 -90.85000000000001-59.9L-90.85000000000001-59.9L-90.85000000000001-37.4L-73.45000000000002-37.4Q-72.45000000000002-37.4 -71.80000000000001-36.7Q-71.15-36 -71.15-35Q-71.15-34 -71.80000000000001-33.35Q-72.45000000000002-32.7 -73.45000000000002-32.7L-73.45000000000002-32.7L-90.85000000000001-32.7L-90.85000000000001 0.6Q-90.85000000000001 9.5 -93.55000000000001 14.8Q-96.25000000000001 20.1 -103.65 22.6ZM-42.75000000000002-19.6L-42.75000000000002-19.6L-66.05000000000003-19.6Q-67.05000000000003-19.6 -67.70000000000002-20.25Q-68.35000000000002-20.9 -68.35000000000002-21.9Q-68.35000000000002-22.9 -67.70000000000002-23.6Q-67.05000000000003-24.3 -66.05000000000003-24.3L-66.05000000000003-24.3L-42.75000000000002-24.3Q-41.75000000000002-24.3 -41.10000000000002-23.6Q-40.450000000000024-22.9 -40.450000000000024-21.9Q-40.450000000000024-20.9 -41.10000000000002-20.25Q-41.75000000000002-19.6 -42.75000000000002-19.6ZM-29.850000000000016-3.9L-29.850000000000016-3.9L-29.850000000000016-12Q-29.850000000000016-13 -29.05000000000002-13.65Q-28.250000000000018-14.3 -27.150000000000016-14.3Q-26.05000000000002-14.3 -25.250000000000018-13.65Q-24.450000000000017-13 -24.450000000000017-12L-24.450000000000017-12L-24.450000000000017-5.2Q-19.650000000000016-3.6 -14.450000000000017-3.6L-14.450000000000017-3.6Q-3.0500000000000185-3.6 -3.0500000000000185-10L-3.0500000000000185-10Q-3.0500000000000185-14.8 -13.750000000000018-17.1L-13.750000000000018-17.1Q-14.250000000000018-17.2 -15.950000000000017-17.6Q-17.650000000000016-18 -18.750000000000018-18.25Q-19.850000000000016-18.5 -22.400000000000016-19.45Q-24.950000000000017-20.4 -26.05000000000002-21.4L-26.05000000000002-21.4Q-29.05000000000002-24.1 -29.05000000000002-28.05Q-29.05000000000002-32 -26.400000000000016-34.45Q-23.750000000000018-36.9 -20.55000000000002-37.65Q-17.350000000000016-38.4 -13.550000000000018-38.4L-13.550000000000018-38.4Q-6.5500000000000185-38.4 -0.6500000000000199-35.7L-0.6500000000000199-35.7Q 1.1499999999999844-34.9  1.1499999999999844-33.5L 1.1499999999999844-33.5L 1.1499999999999844-25.8Q 1.1499999999999844-24.8  0.3499999999999801-24.15Q-0.45000000000001705-23.5 -1.5500000000000185-23.5Q-2.6500000000000163-23.5 -3.450000000000017-24.15Q-4.250000000000018-24.8 -4.250000000000018-25.8L-4.250000000000018-25.8L-4.250000000000018-32.2Q-8.250000000000018-33.8 -13.550000000000018-33.8L-13.550000000000018-33.8Q-23.750000000000018-33.8 -23.750000000000018-28L-23.750000000000018-28Q-23.750000000000018-25.9 -22.400000000000016-25.1Q-21.05000000000002-24.3 -20.400000000000016-23.9Q-19.750000000000018-23.5 -18.05000000000002-23.1L-18.05000000000002-23.1Q-15.650000000000016-22.5 -13.150000000000016-22Q-10.650000000000016-21.5 -9.050000000000018-21.1Q-7.450000000000017-20.7 -5.000000000000018-19.75Q-2.5500000000000185-18.8 -1.15000000000002-17.6L-1.15000000000002-17.6Q 2.34999999999998-14.8  2.34999999999998-10.3Q 2.34999999999998-5.8 -0.6000000000000156-3.15Q-3.5500000000000185-0.5 -7.000000000000018 0.25Q-10.450000000000017 1 -14.450000000000017 1L-14.450000000000017 1Q-22.350000000000016 1 -28.05000000000002-1.6L-28.05000000000002-1.6Q-29.850000000000016-2.4 -29.850000000000016-3.9ZM 44.94999999999999 22.9L 44.94999999999999 22.9Q 42.149999999999984 22.9  42.149999999999984 20.7L 42.149999999999984 20.7L 42.149999999999984-6.5Q 39.84999999999999-3.2  36.29999999999998-1.1Q 32.749999999999986 1  28.749999999999986 1L 28.749999999999986 1Q 20.049999999999986 1  15.499999999999986-4.5Q 10.949999999999985-10  10.949999999999985-18.6Q 10.949999999999985-27.2  15.649999999999986-32.8Q 20.349999999999987-38.4  28.299999999999986-38.4Q 36.249999999999986-38.4  42.149999999999984-33.6L 42.149999999999984-33.6L 42.149999999999984-36.2Q 42.149999999999984-38.4  44.94999999999999-38.4L 44.94999999999999-38.4Q 45.94999999999999-38.4  46.749999999999986-37.8Q 47.54999999999998-37.2  47.54999999999998-36.2L 47.54999999999998-36.2L 47.54999999999998 20.7Q 47.54999999999998 21.7  46.749999999999986 22.3Q 45.94999999999999 22.9  44.94999999999999 22.9ZM 42.149999999999984-13.1L 42.149999999999984-28.5Q 36.249999999999986-33.8  29.599999999999987-33.8Q 22.949999999999985-33.8  19.599999999999987-29.75Q 16.249999999999986-25.7  16.249999999999986-18.7Q 16.249999999999986-11.7  19.549999999999986-7.65Q 22.849999999999987-3.6  28.649999999999984-3.6L 28.649999999999984-3.6Q 37.04999999999998-3.6  42.149999999999984-13.1L 42.149999999999984-13.1ZM 97.54999999999998-4.7L 97.54999999999998-4.7L 102.24999999999999-4.7Q 103.24999999999999-4.7  103.89999999999998-4.05Q 104.54999999999998-3.4  104.54999999999998-2.4Q 104.54999999999998-1.4  103.89999999999998-0.7Q 103.24999999999999 0  102.24999999999999 0L 102.24999999999999 0L 96.85 0Q 90.64999999999998 0  90.64999999999998-6.8L 90.64999999999998-6.8Q 84.64999999999998 1  75.54999999999998 1L 75.54999999999998 1Q 70.14999999999999 1  66.69999999999999-1.75Q 63.249999999999986-4.5  63.249999999999986-9.8L 63.249999999999986-9.8L 63.249999999999986-30.8Q 63.249999999999986-32.7  60.54999999999998-32.7L 60.54999999999998-32.7L 56.649999999999984-32.7Q 55.649999999999984-32.7  54.999999999999986-33.4Q 54.34999999999999-34.1  54.34999999999999-35.1Q 54.34999999999999-36.1  54.999999999999986-36.75Q 55.649999999999984-37.4  56.649999999999984-37.4L 56.649999999999984-37.4L 60.54999999999998-37.4Q 68.64999999999999-37.4  68.64999999999999-30.9L 68.64999999999999-30.9L 68.64999999999999-9.8Q 68.64999999999999-6.8  70.49999999999999-5.2Q 72.35-3.6  75.64999999999998-3.6L 75.64999999999998-3.6Q 84.85-3.6  90.24999999999999-13.2L 90.24999999999999-13.2L 90.24999999999999-36.1Q 90.24999999999999-37.1  91.04999999999998-37.75Q 91.85-38.4  92.94999999999999-38.4Q 94.04999999999998-38.4  94.85-37.75Q 95.64999999999998-37.1  95.64999999999998-36.1L 95.64999999999998-36.1L 95.64999999999998-6.6Q 95.64999999999998-4.7  97.54999999999998-4.7ZM 136.54999999999998-13.6L 136.54999999999998-15.5Q 129.95-17.3  125.29999999999998-17.3Q 120.64999999999999-17.3  117.69999999999999-15.5Q 114.74999999999999-13.7  114.74999999999999-10.45Q 114.74999999999999-7.2  116.64999999999999-5.4Q 118.55-3.6  121.85-3.6L 121.85-3.6Q 131.04999999999998-3.6  136.54999999999998-13.6L 136.54999999999998-13.6ZM 144.54999999999998-4.7L 144.54999999999998-4.7L 148.45-4.7Q 149.45-4.7  150.1-4Q 150.75-3.3  150.75-2.3Q 150.75-1.3  150.1-0.65Q 149.45 0  148.45 0L 148.45 0L 144.04999999999998 0Q 140.45 0  138.5-1.6Q 136.54999999999998-3.2  136.54999999999998-6.1L 136.54999999999998-6.1Q 136.54999999999998-6.6  136.64999999999998-7.2L 136.64999999999998-7.2Q 131.35 1  121.25 1L 121.25 1Q 115.64999999999999 1  112.49999999999999-2Q 109.35-5  109.35-10.35Q 109.35-15.7  113.6-18.75Q 117.85-21.8  124.19999999999999-21.8Q 130.54999999999998-21.8  136.54999999999998-19.7L 136.54999999999998-19.7L 136.54999999999998-26.6Q 136.54999999999998-31.4  133.04999999999998-32.8L 133.04999999999998-32.8Q 130.35-33.8  125.6-33.8Q 120.85-33.8  116.85-32.2L 116.85-32.2L 116.85-25.9Q 116.85-24.9  116.05-24.25Q 115.24999999999999-23.6  114.14999999999999-23.6Q 113.05-23.6  112.24999999999999-24.25Q 111.44999999999999-24.9  111.44999999999999-25.9L 111.44999999999999-25.9L 111.44999999999999-33.5Q 111.44999999999999-34.8  112.74999999999999-35.5L 112.74999999999999-35.5Q 117.64999999999999-38.4  125.75-38.4Q 133.85-38.4  137.85-35.75Q 141.85-33.1  141.85-26.6L 141.85-26.6L 141.85-6.6Q 141.85-4.7  144.54999999999998-4.7ZM 172.14999999999998-33.8L 172.14999999999998-33.8Q 166.45-33.8  163.04999999999998-29.7Q 159.64999999999998-25.6  159.64999999999998-18.6Q 159.64999999999998-11.6  162.99999999999997-7.6Q 166.34999999999997-3.6  172.14999999999998-3.6L 172.14999999999998-3.6Q 180.54999999999998-3.6  185.54999999999998-13.1L 185.54999999999998-13.1L 185.54999999999998-27.8Q 182.95-30.3  179.29999999999998-32.05Q 175.64999999999998-33.8  172.14999999999998-33.8ZM 185.54999999999998-33.1L 185.54999999999998-70.3L 178.95-70.3Q 177.95-70.3  177.29999999999998-70.95Q 176.64999999999998-71.6  176.64999999999998-72.6Q 176.64999999999998-73.6  177.29999999999998-74.3Q 177.95-75  178.95-75L 178.95-75L 188.24999999999997-75Q 189.34999999999997-75  190.14999999999998-74.3Q 190.95-73.6  190.95-72.6L 190.95-72.6L 190.95-6.6Q 190.95-4.7  192.95-4.7L 192.95-4.7L 197.54999999999998-4.7Q 198.54999999999998-4.7  199.2-4.05Q 199.84999999999997-3.4  199.84999999999997-2.4Q 199.84999999999997-1.4  199.2-0.7Q 198.54999999999998 0  197.54999999999998 0L 197.54999999999998 0L 192.24999999999997 0Q 185.74999999999997 0  185.95-7.1L 185.95-7.1Q 183.74999999999997-3.7  180.2-1.35Q 176.64999999999998 1  172.14999999999998 1L 172.14999999999998 1Q 163.24999999999997 1  158.79999999999998-4.7Q 154.34999999999997-10.4  154.34999999999997-18.8Q 154.34999999999997-27.2  158.99999999999997-32.8Q 163.64999999999998-38.4  171.74999999999997-38.4Q 179.84999999999997-38.4  185.54999999999998-33.1L 185.54999999999998-33.1Z"/>
</svg>
