<svg xmlns="http://www.w3.org/2000/svg" xmlns:xlink="http://www.w3.org/1999/xlink" version="1.1" width="500" height="500" viewBox="0 0 500 500" xml:space="preserve">
<desc>Created with Fabric.js 3.5.0</desc>
<defs>
</defs>
<rect x="0" y="0" width="100%" height="100%" fill="#ffffff"/>
<g transform="matrix(6.875 0 0 6.875 250 225.6822)" id="236065">
<g style="" vector-effect="non-scaling-stroke">
		<g transform="matrix(1 0 0 1 0.7403 -8.621)" id="769286">
<path style="stroke: none; stroke-width: 1; stroke-dasharray: none; stroke-linecap: butt; stroke-dashoffset: 0; stroke-linejoin: miter; stroke-miterlimit: 4; is-custom-font: none; font-file-url: none; fill: rrgb(255,255,255); fill-rule: nonzero; opacity: 1;" transform=" translate(-80.7402, -71.379)" d="M 66.699219 57.707031 C 65.683594 57.707031 64.851562 58.535156 64.851562 59.554688 L 64.851562 78.027344 C 64.851562 79.046875 65.683594 79.875 66.699219 79.875 L 77.785156 79.875 L 77.785156 84.3125 L 75.9375 84.3125 C 75.742188 84.3125 75.566406 84.488281 75.566406 84.679688 C 75.566406 84.875 75.742188 85.050781 75.9375 85.050781 C 79.136719 85.050781 82.332031 85.050781 85.53125 85.050781 C 85.746094 85.058594 85.941406 84.847656 85.914062 84.632812 C 85.890625 84.453125 85.714844 84.304688 85.53125 84.3125 L 83.695312 84.3125 L 83.695312 79.875 L 94.78125 79.875 C 95.796875 79.875 96.628906 79.046875 96.628906 78.027344 L 96.628906 59.554688 C 96.628906 58.535156 95.796875 57.707031 94.78125 57.707031 Z M 66.699219 58.445312 L 94.78125 58.445312 C 95.402344 58.445312 95.890625 58.933594 95.890625 59.554688 L 95.890625 78.027344 C 95.890625 78.648438 95.402344 79.136719 94.78125 79.136719 L 66.699219 79.136719 C 66.078125 79.136719 65.589844 78.648438 65.589844 78.027344 L 65.589844 59.554688 C 65.589844 58.933594 66.078125 58.445312 66.699219 58.445312 Z M 82.910156 62.867188 C 82.777344 62.886719 82.65625 62.984375 82.609375 63.109375 L 78.175781 74.195312 C 78.105469 74.375 78.207031 74.605469 78.390625 74.675781 C 78.570312 74.746094 78.800781 74.640625 78.871094 74.460938 L 83.304688 63.375 C 83.402344 63.136719 83.167969 62.832031 82.910156 62.867188 Z M 75.554688 64.714844 C 75.496094 64.71875 75.433594 64.738281 75.382812 64.773438 L 68.730469 68.46875 C 68.5 68.59375 68.5 68.988281 68.730469 69.113281 L 75.382812 72.808594 C 75.550781 72.90625 75.792969 72.839844 75.890625 72.671875 C 75.988281 72.503906 75.921875 72.261719 75.75 72.164062 L 69.679688 68.792969 L 75.75 65.417969 C 75.914062 65.347656 76.003906 65.152344 75.957031 64.984375 C 75.910156 64.8125 75.730469 64.695312 75.554688 64.714844 Z M 85.878906 64.714844 C 85.714844 64.71875 85.558594 64.847656 85.523438 65.007812 C 85.488281 65.171875 85.578125 65.351562 85.726562 65.417969 L 91.800781 68.792969 L 85.726562 72.164062 C 85.558594 72.261719 85.492188 72.503906 85.589844 72.671875 C 85.6875 72.839844 85.929688 72.90625 86.097656 72.808594 L 92.75 69.113281 C 92.980469 68.988281 92.980469 68.59375 92.75 68.46875 L 86.097656 64.773438 C 86.03125 64.730469 85.957031 64.710938 85.878906 64.714844 Z M 78.523438 79.875 L 82.957031 79.875 L 82.957031 84.3125 L 78.523438 84.3125 Z M 78.523438 79.875" stroke-linecap="round"/>
</g>
		<g transform="matrix(1 0 0 1 0.2461 17.6328)" id="69567">
<path style="stroke: none; stroke-width: 1; stroke-dasharray: none; stroke-linecap: butt; stroke-dashoffset: 0; stroke-linejoin: miter; stroke-miterlimit: 4; is-custom-font: none; font-file-url: none; fill: rgb(255,255,255); fill-rule: nonzero; opacity: 1;" transform=" translate(-80.2461, -97.6328)" d="M 48.609375 96.363281 C 47.941406 96.363281 47.410156 96.601562 47.011719 97.082031 C 46.617188 97.558594 46.417969 98.207031 46.417969 99.027344 C 46.417969 99.84375 46.613281 100.488281 47.003906 100.957031 C 47.394531 101.421875 47.929688 101.65625 48.609375 101.65625 C 49.589844 101.65625 50.375 101.101562 50.960938 99.992188 L 50.960938 97.414062 C 50.65625 97.121094 50.289062 96.871094 49.863281 96.667969 C 49.4375 96.464844 49.019531 96.363281 48.609375 96.363281 Z M 50.960938 96.484375 L 50.960938 89.960938 L 49.800781 89.960938 C 49.683594 89.960938 49.589844 89.921875 49.511719 89.847656 C 49.4375 89.769531 49.398438 89.675781 49.398438 89.558594 C 49.398438 89.441406 49.4375 89.339844 49.511719 89.257812 C 49.589844 89.175781 49.683594 89.136719 49.800781 89.136719 L 51.433594 89.136719 C 51.5625 89.136719 51.671875 89.175781 51.765625 89.257812 C 51.859375 89.339844 51.90625 89.441406 51.90625 89.558594 L 51.90625 101.132812 C 51.90625 101.355469 52.023438 101.464844 52.257812 101.464844 L 53.0625 101.464844 C 53.179688 101.464844 53.277344 101.503906 53.351562 101.578125 C 53.429688 101.65625 53.46875 101.75 53.46875 101.867188 C 53.46875 101.984375 53.429688 102.085938 53.351562 102.167969 C 53.277344 102.246094 53.179688 102.289062 53.0625 102.289062 L 52.132812 102.289062 C 51.375 102.289062 51.007812 101.875 51.027344 101.042969 C 50.773438 101.441406 50.4375 101.777344 50.019531 102.050781 C 49.605469 102.328125 49.136719 102.464844 48.609375 102.464844 C 47.570312 102.464844 46.789062 102.132812 46.269531 101.464844 C 45.746094 100.796875 45.488281 99.972656 45.488281 98.992188 C 45.488281 98.011719 45.757812 97.191406 46.304688 96.535156 C 46.847656 95.882812 47.59375 95.554688 48.539062 95.554688 C 49.484375 95.554688 50.292969 95.863281 50.960938 96.484375 Z M 59.691406 98.429688 C 59.65625 97.800781 59.472656 97.296875 59.140625 96.921875 C 58.808594 96.546875 58.328125 96.363281 57.703125 96.363281 C 57.078125 96.363281 56.554688 96.550781 56.132812 96.929688 C 55.710938 97.3125 55.449219 97.8125 55.34375 98.429688 Z M 59.726562 100.605469 C 59.808594 100.464844 59.902344 100.394531 60.007812 100.394531 C 60.113281 100.394531 60.21875 100.421875 60.324219 100.472656 C 60.429688 100.527344 60.503906 100.609375 60.542969 100.71875 C 60.582031 100.832031 60.574219 100.933594 60.515625 101.027344 C 59.921875 101.984375 58.972656 102.464844 57.675781 102.464844 C 56.648438 102.464844 55.835938 102.132812 55.246094 101.472656 C 54.65625 100.8125 54.359375 99.980469 54.359375 98.972656 C 54.359375 97.96875 54.664062 97.148438 55.273438 96.511719 C 55.882812 95.875 56.683594 95.554688 57.675781 95.554688 C 58.667969 95.554688 59.410156 95.851562 59.894531 96.449219 C 60.378906 97.046875 60.621094 97.839844 60.621094 98.835938 C 60.621094 99.101562 60.46875 99.238281 60.164062 99.238281 L 55.308594 99.253906 C 55.355469 99.980469 55.589844 100.5625 56.019531 101 C 56.445312 101.4375 56.996094 101.65625 57.675781 101.65625 C 58.585938 101.65625 59.273438 101.308594 59.726562 100.605469 Z M 61.78125 106.253906 C 61.652344 106.289062 61.539062 106.304688 61.445312 106.304688 C 61.351562 106.304688 61.269531 106.269531 61.191406 106.199219 C 61.117188 106.128906 61.078125 106.035156 61.078125 105.917969 C 61.078125 105.707031 61.210938 105.566406 61.480469 105.5 C 62.089844 105.3125 62.511719 104.964844 62.742188 104.453125 C 62.976562 103.945312 63.09375 103.257812 63.09375 102.394531 L 63.09375 96.554688 L 62.023438 96.554688 C 61.90625 96.554688 61.8125 96.515625 61.734375 96.441406 C 61.660156 96.363281 61.621094 96.269531 61.621094 96.152344 C 61.621094 96.035156 61.660156 95.933594 61.734375 95.851562 C 61.8125 95.769531 61.90625 95.730469 62.023438 95.730469 L 63.09375 95.730469 L 63.09375 91.765625 C 63.09375 90.75 63.308594 90.027344 63.734375 89.601562 C 64.160156 89.175781 64.820312 88.960938 65.707031 88.960938 C 66.597656 88.960938 67.355469 89.152344 67.988281 89.539062 C 68.128906 89.621094 68.199219 89.726562 68.199219 89.855469 L 68.199219 91.363281 C 68.199219 91.480469 68.152344 91.578125 68.058594 91.652344 C 67.964844 91.730469 67.851562 91.765625 67.722656 91.765625 C 67.59375 91.765625 67.484375 91.730469 67.390625 91.652344 C 67.296875 91.578125 67.25 91.480469 67.25 91.363281 L 67.25 90.046875 C 66.839844 89.859375 66.332031 89.769531 65.726562 89.769531 C 65.117188 89.769531 64.683594 89.921875 64.417969 90.230469 C 64.15625 90.542969 64.023438 91.058594 64.023438 91.785156 L 64.023438 95.730469 L 67.074219 95.730469 C 67.191406 95.730469 67.289062 95.769531 67.363281 95.851562 C 67.441406 95.933594 67.480469 96.035156 67.480469 96.152344 C 67.480469 96.269531 67.441406 96.363281 67.363281 96.441406 C 67.289062 96.515625 67.191406 96.554688 67.074219 96.554688 L 64.023438 96.554688 L 64.023438 102.394531 C 64.023438 103.433594 63.867188 104.265625 63.550781 104.882812 C 63.234375 105.503906 62.644531 105.960938 61.78125 106.253906 Z M 72.460938 98.851562 L 68.375 98.851562 C 68.257812 98.851562 68.160156 98.8125 68.082031 98.738281 C 68.007812 98.660156 67.96875 98.566406 67.96875 98.449219 C 67.96875 98.332031 68.007812 98.230469 68.082031 98.148438 C 68.160156 98.070312 68.257812 98.027344 68.375 98.027344 L 72.460938 98.027344 C 72.574219 98.027344 72.671875 98.070312 72.75 98.148438 C 72.824219 98.230469 72.863281 98.332031 72.863281 98.449219 C 72.863281 98.566406 72.824219 98.660156 72.75 98.738281 C 72.671875 98.8125 72.574219 98.851562 72.460938 98.851562 Z M 74.722656 101.605469 L 74.722656 100.183594 C 74.722656 100.066406 74.769531 99.972656 74.863281 99.894531 C 74.957031 99.820312 75.066406 99.78125 75.195312 99.78125 C 75.324219 99.78125 75.433594 99.820312 75.527344 99.894531 C 75.621094 99.972656 75.667969 100.066406 75.667969 100.183594 L 75.667969 101.378906 C 76.230469 101.5625 76.8125 101.65625 77.421875 101.65625 C 78.753906 101.65625 79.421875 101.285156 79.421875 100.535156 C 79.421875 99.972656 78.796875 99.558594 77.542969 99.289062 C 77.488281 99.277344 77.359375 99.25 77.160156 99.203125 C 76.960938 99.15625 76.796875 99.117188 76.667969 99.089844 C 76.539062 99.058594 76.324219 98.988281 76.027344 98.878906 C 75.730469 98.765625 75.515625 98.652344 75.386719 98.535156 C 75.035156 98.21875 74.863281 97.832031 74.863281 97.371094 C 74.863281 96.90625 75.015625 96.535156 75.328125 96.246094 C 75.636719 95.960938 75.976562 95.773438 76.351562 95.6875 C 76.726562 95.597656 77.136719 95.554688 77.578125 95.554688 C 78.398438 95.554688 79.152344 95.710938 79.84375 96.027344 C 80.050781 96.121094 80.15625 96.25 80.15625 96.414062 L 80.15625 97.765625 C 80.15625 97.882812 80.109375 97.976562 80.015625 98.054688 C 79.925781 98.128906 79.8125 98.167969 79.683594 98.167969 C 79.554688 98.167969 79.445312 98.128906 79.351562 98.054688 C 79.257812 97.976562 79.210938 97.882812 79.210938 97.765625 L 79.210938 96.640625 C 78.742188 96.453125 78.199219 96.363281 77.578125 96.363281 C 76.386719 96.363281 75.792969 96.699219 75.792969 97.378906 C 75.792969 97.625 75.871094 97.792969 76.027344 97.886719 C 76.1875 97.980469 76.300781 98.050781 76.378906 98.097656 C 76.453125 98.144531 76.59375 98.191406 76.789062 98.238281 C 77.070312 98.308594 77.359375 98.371094 77.648438 98.429688 C 77.941406 98.488281 78.183594 98.542969 78.367188 98.589844 C 78.554688 98.636719 78.792969 98.714844 79.078125 98.824219 C 79.367188 98.9375 79.589844 99.0625 79.753906 99.203125 C 80.164062 99.53125 80.367188 99.957031 80.367188 100.484375 C 80.367188 101.007812 80.195312 101.425781 79.851562 101.738281 C 79.507812 102.046875 79.132812 102.246094 78.730469 102.332031 C 78.324219 102.421875 77.890625 102.464844 77.421875 102.464844 C 76.5 102.464844 75.703125 102.3125 75.035156 102.007812 C 74.828125 101.914062 74.722656 101.78125 74.722656 101.605469 Z M 87.839844 106.304688 C 87.511719 106.304688 87.347656 106.175781 87.347656 105.917969 L 87.347656 101.148438 C 87.078125 101.535156 86.738281 101.851562 86.320312 102.097656 C 85.90625 102.339844 85.464844 102.464844 84.996094 102.464844 C 83.980469 102.464844 83.207031 102.144531 82.675781 101.5 C 82.140625 100.855469 81.875 100.03125 81.875 99.027344 C 81.875 98.023438 82.152344 97.191406 82.699219 96.535156 C 83.25 95.882812 83.988281 95.554688 84.917969 95.554688 C 85.847656 95.554688 86.65625 95.835938 87.347656 96.398438 L 87.347656 95.941406 C 87.347656 95.683594 87.511719 95.554688 87.839844 95.554688 C 87.957031 95.554688 88.0625 95.589844 88.15625 95.660156 C 88.25 95.730469 88.292969 95.824219 88.292969 95.941406 L 88.292969 105.917969 C 88.292969 106.035156 88.25 106.128906 88.15625 106.199219 C 88.0625 106.269531 87.957031 106.304688 87.839844 106.304688 Z M 87.347656 99.992188 L 87.347656 97.289062 C 86.65625 96.671875 85.925781 96.363281 85.148438 96.363281 C 84.371094 96.363281 83.785156 96.597656 83.394531 97.070312 C 83 97.546875 82.804688 98.191406 82.804688 99.007812 C 82.804688 99.828125 83 100.472656 83.382812 100.949219 C 83.769531 101.421875 84.300781 101.65625 84.980469 101.65625 C 85.960938 101.65625 86.75 101.101562 87.347656 99.992188 Z M 97.0625 101.464844 L 97.886719 101.464844 C 98.003906 101.464844 98.101562 101.503906 98.175781 101.578125 C 98.253906 101.65625 98.289062 101.75 98.289062 101.867188 C 98.289062 101.984375 98.253906 102.085938 98.175781 102.167969 C 98.101562 102.246094 98.003906 102.289062 97.886719 102.289062 L 96.941406 102.289062 C 96.214844 102.289062 95.851562 101.890625 95.851562 101.097656 C 95.152344 102.007812 94.269531 102.464844 93.207031 102.464844 C 92.574219 102.464844 92.054688 102.304688 91.652344 101.980469 C 91.25 101.660156 91.046875 101.191406 91.046875 100.570312 L 91.046875 96.886719 C 91.046875 96.664062 90.890625 96.554688 90.574219 96.554688 L 89.890625 96.554688 C 89.773438 96.554688 89.675781 96.511719 89.601562 96.429688 C 89.523438 96.351562 89.488281 96.25 89.488281 96.132812 C 89.488281 96.015625 89.523438 95.921875 89.601562 95.84375 C 89.675781 95.769531 89.773438 95.730469 89.890625 95.730469 L 90.574219 95.730469 C 91.523438 95.730469 91.996094 96.109375 91.996094 96.871094 L 91.996094 100.570312 C 91.996094 100.921875 92.101562 101.191406 92.320312 101.378906 C 92.535156 101.5625 92.835938 101.65625 93.222656 101.65625 C 94.296875 101.65625 95.152344 101.097656 95.78125 99.972656 L 95.78125 95.957031 C 95.78125 95.839844 95.828125 95.746094 95.921875 95.667969 C 96.015625 95.59375 96.128906 95.554688 96.257812 95.554688 C 96.386719 95.554688 96.496094 95.59375 96.589844 95.667969 C 96.683594 95.746094 96.730469 95.839844 96.730469 95.957031 L 96.730469 101.132812 C 96.730469 101.355469 96.839844 101.464844 97.0625 101.464844 Z M 103.902344 99.902344 L 103.902344 99.570312 C 103.132812 99.359375 102.472656 99.253906 101.929688 99.253906 C 101.386719 99.253906 100.941406 99.359375 100.597656 99.570312 C 100.253906 99.78125 100.078125 100.078125 100.078125 100.457031 C 100.078125 100.835938 100.191406 101.132812 100.414062 101.34375 C 100.636719 101.550781 100.9375 101.65625 101.324219 101.65625 C 102.398438 101.65625 103.257812 101.074219 103.902344 99.902344 Z M 105.304688 101.464844 L 105.988281 101.464844 C 106.105469 101.464844 106.203125 101.503906 106.277344 101.585938 C 106.355469 101.667969 106.394531 101.769531 106.394531 101.886719 C 106.394531 102.003906 106.355469 102.097656 106.277344 102.175781 C 106.203125 102.25 106.105469 102.289062 105.988281 102.289062 L 105.21875 102.289062 C 104.796875 102.289062 104.472656 102.195312 104.246094 102.007812 C 104.015625 101.820312 103.902344 101.558594 103.902344 101.21875 C 103.902344 101.160156 103.910156 101.097656 103.921875 101.027344 C 103.300781 101.984375 102.398438 102.464844 101.21875 102.464844 C 100.566406 102.464844 100.054688 102.289062 99.683594 101.9375 C 99.316406 101.585938 99.132812 101.097656 99.132812 100.472656 C 99.132812 99.847656 99.382812 99.355469 99.878906 99 C 100.375 98.644531 100.996094 98.464844 101.738281 98.464844 C 102.480469 98.464844 103.199219 98.589844 103.902344 98.835938 L 103.902344 97.625 C 103.902344 97.0625 103.699219 96.699219 103.289062 96.535156 C 102.972656 96.421875 102.539062 96.363281 101.980469 96.363281 C 101.425781 96.363281 100.914062 96.453125 100.449219 96.640625 L 100.449219 97.746094 C 100.449219 97.863281 100.402344 97.960938 100.308594 98.035156 C 100.214844 98.113281 100.101562 98.148438 99.972656 98.148438 C 99.847656 98.148438 99.734375 98.113281 99.640625 98.035156 C 99.546875 97.960938 99.5 97.863281 99.5 97.746094 L 99.5 96.414062 C 99.5 96.261719 99.578125 96.144531 99.730469 96.0625 C 100.300781 95.722656 101.0625 95.554688 102.007812 95.554688 C 102.957031 95.554688 103.664062 95.710938 104.128906 96.019531 C 104.597656 96.328125 104.832031 96.863281 104.832031 97.625 L 104.832031 101.132812 C 104.832031 101.355469 104.988281 101.464844 105.304688 101.464844 Z M 110.144531 96.363281 C 109.480469 96.363281 108.949219 96.601562 108.550781 97.082031 C 108.152344 97.558594 107.953125 98.207031 107.953125 99.027344 C 107.953125 99.84375 108.148438 100.488281 108.542969 100.957031 C 108.933594 101.421875 109.46875 101.65625 110.144531 101.65625 C 111.128906 101.65625 111.910156 101.101562 112.496094 99.992188 L 112.496094 97.414062 C 112.191406 97.121094 111.828125 96.871094 111.398438 96.667969 C 110.972656 96.464844 110.554688 96.363281 110.144531 96.363281 Z M 112.496094 96.484375 L 112.496094 89.960938 L 111.339844 89.960938 C 111.222656 89.960938 111.125 89.921875 111.050781 89.847656 C 110.972656 89.769531 110.933594 89.675781 110.933594 89.558594 C 110.933594 89.441406 110.972656 89.339844 111.050781 89.257812 C 111.125 89.175781 111.222656 89.136719 111.339844 89.136719 L 112.96875 89.136719 C 113.097656 89.136719 113.207031 89.175781 113.300781 89.257812 C 113.394531 89.339844 113.441406 89.441406 113.441406 89.558594 L 113.441406 101.132812 C 113.441406 101.355469 113.558594 101.464844 113.792969 101.464844 L 114.601562 101.464844 C 114.71875 101.464844 114.8125 101.503906 114.890625 101.578125 C 114.964844 101.65625 115.003906 101.75 115.003906 101.867188 C 115.003906 101.984375 114.964844 102.085938 114.890625 102.167969 C 114.8125 102.246094 114.71875 102.289062 114.601562 102.289062 L 113.671875 102.289062 C 112.910156 102.289062 112.542969 101.875 112.566406 101.042969 C 112.308594 101.441406 111.972656 101.777344 111.558594 102.050781 C 111.140625 102.328125 110.671875 102.464844 110.144531 102.464844 C 109.105469 102.464844 108.324219 102.132812 107.804688 101.464844 C 107.285156 100.796875 107.023438 99.972656 107.023438 98.992188 C 107.023438 98.011719 107.296875 97.191406 107.839844 96.535156 C 108.382812 95.882812 109.128906 95.554688 110.074219 95.554688 C 111.023438 95.554688 111.828125 95.863281 112.496094 96.484375 Z M 112.496094 96.484375" stroke-linecap="round"/>
</g>
</g>
</g>
</svg>